<?xml version="1.0" encoding="utf-8"?>
<!-- Generator: Adobe Illustrator 28.1.0, SVG Export Plug-In . SVG Version: 6.00 Build 0)  -->
<svg version="1.0"
	 id="svg6065"  
	 xmlns="http://www.w3.org/2000/svg" xmlns:xlink="http://www.w3.org/1999/xlink" x="0px" y="0px" viewBox="0 0 1024 318"
	 enable-background="new 0 0 1024 318" xml:space="preserve">
<g id="layer1" transform="translate(0,-450)">
	<g id="g5954" transform="matrix(6.3542467,0,0,-6.3542467,-223.05481,1697.121)">
		<g id="g5672" transform="translate(100.5581,162.5717)">
			<path id="path5674" fill="#231F20" d="M0,0v7.3h-6.8V0h-3v16.7h3v-6.5H0v6.5h3V0H0z"/>
		</g>
		<g id="g5676" transform="translate(103.5957,179.264)">
			<path id="path5678" fill="#201E20" d="M0,0h-3v-6.5h-6.8V0h-3v-16.7h3v7.3H-3v-7.3h3V0z"/>
		</g>
		<g id="g5680" transform="translate(106.7653,162.5717)">
			<path id="path5682" fill="#231F20" d="M0,0v16.7h11.4v-2.8H3v-3.9h7.3V7.3H3V2.8h8.4V0H0z"/>
		</g>
		<g id="g5684" transform="translate(118.1578,179.264)">
			<path id="path5686" fill="#201E20" d="M0,0h-11.4v-16.7H0v2.8h-8.4v4.6h7.3v2.7h-7.3v3.9H0V0z"/>
		</g>
		<g id="g5688" transform="translate(130.4263,162.5717)">
			<path id="path5690" fill="#231F20" d="M0,0l-3.7,6.1L-7.5,0h-3.3l5.2,8.5l-5.2,8.2h3.3l3.7-5.8L0,16.7h3.3l-5.1-8.2L3.3,0H0z"/>
		</g>
		<g id="g5692" transform="translate(133.703,179.264)">
			<path id="path5694" fill="#201E20" d="M0,0h-3.3l-3.6-5.8L-10.7,0H-14l5.2-8.2l-5.2-8.5h3.3l3.7,6.1l3.7-6.1h3.3l-5.2,8.5L0,0z"
				/>
		</g>
		<g id="g5696" transform="translate(145.8174,162.5717)">
			<path id="path5698" fill="#231F20" d="M0,0l-1.1,3.2h-6.6L-8.8,0h-3.1L-6,16.7h3.3L3.2,0H0z M-4.4,13l-2.4-7H-2
				C-2,5.9-4.4,13-4.4,13z"/>
		</g>
		<g id="g5700" transform="translate(139.0367,168.5011)">
			<path id="path5702" fill="#201E20" d="M0,0l2.4,7l2.4-7H0z M4.1,10.8H0.8L-5.1-5.9H-2l1.1,3.2h6.6l1.1-3.2H10
				C10-5.9,4.1,10.8,4.1,10.8z"/>
		</g>
		<g id="g5704">
			<g>
				<defs>
					<rect id="SVGID_1_" x="-1638.4" y="-2120.3" width="3888.8" height="5032.6"/>
				</defs>
				<clipPath id="SVGID_00000087382406037805334260000007845181593724924822_">
					<use xlink:href="#SVGID_1_"  overflow="visible"/>
				</clipPath>
				<g id="g5706" clip-path="url(#SVGID_00000087382406037805334260000007845181593724924822_)">
					<g id="g5712" transform="translate(162.6742,162.5717)">
						<path id="path5714" fill="#231F20" d="M0,0l-1.8,1.8c-0.5-1-2.1-2.1-4.2-2.1c-1.9,0-3.6,0.5-5,1.9c-1.7,1.8-2.2,4-2.2,6.8
							c0,2.7,0.4,4.9,2.2,6.7c1.3,1.3,3.2,2,5,2c2,0,3.8-0.8,4.9-1.9c0.8-0.8,1.4-1.9,1.5-3.4h-3.1c0,0.7-0.4,1.1-0.7,1.5
							c-0.6,0.7-1.5,1-2.7,1c-1,0-2.1-0.4-2.7-1.1C-9.9,11.9-10,9.9-10,8.3c0-1.5,0.2-3.7,1.3-4.9C-8,2.8-6.9,2.4-6,2.4
							c1.1,0,1.9,0.4,2.5,1c0.9,0.9,1.1,2,1.1,3.2h-4v2.5h6.9l0-9.1H0z"/>
					</g>
					<g id="g5716" transform="translate(156.7225,179.5701)">
						<path id="path5718" fill="#201E20" d="M0,0c-1.8,0-3.7-0.7-5-2c-1.8-1.8-2.2-4-2.2-6.7c0-2.7,0.4-5,2.2-6.8
							c1.3-1.4,3-1.9,4.8-1.9c0,0,0.1,0,0.1,0c2.1,0,3.7,1.2,4.2,2.1L6-17h0.5v9.1h-6.9v-2.5h4c0-1.3-0.2-2.3-1.1-3.2
							c-0.6-0.6-1.4-1-2.5-1c-1,0-2,0.4-2.7,1.1C-3.9-12.3-4-10.2-4-8.7c0,1.5,0.1,3.6,1.3,4.8C-2.1-3.2-1-2.7,0-2.7
							c1.2,0,2.1-0.3,2.7-1C3-4.2,3.3-4.6,3.4-5.3h3.1C6.4-3.8,5.8-2.8,4.9-1.9C3.8-0.8,2,0,0,0"/>
					</g>
					<g id="g5720" transform="translate(177.3893,164.1484)">
						<path id="path5722" fill="#231F20" d="M0,0c-1.3-1.3-3-1.9-4.8-1.9c-1.8,0-3.5,0.6-4.8,1.9c-1.8,1.8-2.1,4-2.1,6.8
							c0,2.7,0.3,5,2.1,6.8c1.3,1.3,3,1.9,4.8,1.9c1.8,0,3.5-0.6,4.8-1.9c1.8-1.8,2.1-4,2.1-6.8C2.1,4,1.8,1.8,0,0 M-2.2,11.6
							c-0.7,0.7-1.7,1.1-2.6,1.1c-1,0-2-0.4-2.6-1.1c-1.1-1.2-1.2-3.3-1.2-4.8c0-1.5,0.1-3.6,1.2-4.8c0.7-0.7,1.7-1.1,2.6-1.1
							c1,0,2,0.4,2.6,1.1C-1,3.2-1,5.2-1,6.8C-1,8.3-1,10.4-2.2,11.6"/>
					</g>
					<g id="g5724" transform="translate(168.75,170.9056)">
						<path id="path5726" fill="#201E20" d="M0,0L0,0c0,1.5,0.1,3.6,1.2,4.8c0.7,0.7,1.7,1.1,2.6,1.1c1,0,2-0.4,2.6-1.1
							C7.6,3.6,7.7,1.5,7.7,0c0-1.5,0-3.6-1.2-4.8C5.8-5.5,4.8-5.9,3.8-5.9c-1,0-2,0.4-2.6,1.1C0.1-3.6,0-1.5,0,0 M3.8,8.7
							C2.1,8.7,0.3,8-1,6.8C-2.8,5-3.1,2.7-3.1,0c0-2.7,0.3-4.9,2.1-6.8c1.3-1.3,3-1.9,4.8-1.9c1.8,0,3.5,0.6,4.8,1.9
							c1.8,1.8,2.1,4,2.1,6.8c0,2.7-0.3,5-2.1,6.8C7.4,8,5.6,8.7,3.8,8.7"/>
					</g>
				</g>
			</g>
		</g>
		<g id="g5728" transform="translate(192.047,162.5717)">
			<path id="path5730" fill="#231F20" d="M0,0l-7.2,11.5V0h-3v16.7H-7L0.1,5.4v11.3h3L3.1,0H0z"/>
		</g>
		<g id="g5732" transform="translate(195.1756,179.264)">
			<path id="path5734" fill="#201E20" d="M0,0h-3v-11.3L-10.1,0h-3.2v-16.7h3v11.5l7.2-11.5H0L0,0z"/>
		</g>
		<g id="g5736" transform="translate(36.1828,158.8305)">
			<path id="path5738" fill="#7EC9D5" d="M0,0h14.2l-3.5,6.1L0,0z"/>
		</g>
		<g id="g5740" transform="translate(64.4875,158.8305)">
			<path id="path5742" fill="#7EC9D5" d="M0,0l14.2,24.5L-7.1,12.3V0H0z"/>
		</g>
		<g id="g5744" transform="translate(57.4106,146.5719)">
			<path id="path5746" fill="#B3DF60" d="M0,0l21.2,12.3H7.1L0,0z"/>
		</g>
		<g id="g5748" transform="translate(46.7961,164.9577)">
			<path id="path5750" fill="#B3DF60" d="M0,0l10.6,6.1v24.5L-3.5,6.1L0,0z"/>
		</g>
		<g id="g5752" transform="translate(50.3342,158.8305)">
			<path id="path5754" fill="#B3DF60" d="M0,0l7.1-12.3V0H0z"/>
		</g>
		<g id="g5756" transform="translate(36.1828,183.3435)">
			<path id="path5758" fill="#7EC9D5" d="M0,0v-24.5l7.1,12.3L0,0z"/>
		</g>
		<g id="g5760" transform="translate(78.6384,183.3424)">
			<path id="path5762" fill="#3499BE" d="M0,0l-14.2-24.5H0L0,0L0,0z"/>
		</g>
		<g id="g5764" transform="translate(57.4106,171.0862)">
			<path id="path5766" fill="#3499BE" d="M0,0l-10.6-6.1l3.5-6.1H0L0,0z"/>
		</g>
		<g id="g5768" transform="translate(57.4106,195.6)">
			<path id="path5770" fill="#3499BE" d="M0,0l-21.2-12.3l7.1-12.3L0,0z"/>
		</g>
	</g>
</g>
</svg>
